<svg xmlns="http://www.w3.org/2000/svg" width="1200" height="600" viewBox="0 0 1200 600">
  <defs>
    <radialGradient id="glow" cx="0.28" cy="0.5" r="0.6">
      <stop offset="0" stop-color="#3DDC97" stop-opacity="0.14"/>
      <stop offset="1" stop-color="#3DDC97" stop-opacity="0"/>
    </radialGradient>
  </defs>
  <rect width="1200" height="600" fill="#0B0D10"/>
  <rect width="1200" height="600" fill="url(#glow)"/>
  <g transform="translate(150 170) scale(2.6)"><path d="M8 30V18a10 10 0 0 1 10-10h12M70 8h12a10 10 0 0 1 10 10v12M92 70v12a10 10 0 0 1-10 10H70M30 92H18a10 10 0 0 1-10-10V70" fill="none" stroke="#3DDC97" stroke-linecap="round" stroke-width="8"/><rect x="36" y="36" width="28" height="28" rx="6" fill="#3DDC97"/></g>
  <g font-family="Inter, 'Helvetica Neue', Helvetica, Arial, sans-serif">
    <text x="490" y="292" fill="#F4F6F8" font-size="76" font-weight="700" letter-spacing="-1.5">Pocket Address</text>
    <text x="492" y="356" fill="#8A919C" font-size="34">Your Solana address, ready to share</text>
  </g>
</svg>
